<svg id="Layer_1" data-name="Layer 1" xmlns="http://www.w3.org/2000/svg" viewBox="0 0 360.5249 64.209">
  <defs>
    <style>
      .cls-1 {fill: #24224c}
      .cls-2 {fill: #fff}
      .cls-3 {fill: #c7494e}
    </style>
  </defs>
  <title>wikidaheim-claim</title>
  <g>
    <path class="cls-1" d="M31.2544,63.583H23.4971L18.3042,44.752,13.1118,63.583H5.0938L.7876,22.9189H7.9634l3.085,29.79L15.19,37.687l6.2271-.0039,4.1367,15.0024,3.0107-29.7666h6.9243Z" transform="translate(-0.7876 0)"/>
    <path class="cls-1" d="M68.4141,63.583H41.0127V57.64H51.335V40.561H41.4507V34.6177H58.7173V57.64h9.6968ZM54.5254,29.05a4.8762,4.8762,0,0,1-3.5972-1.22,4.2757,4.2757,0,0,1-1.22-3.1592,4.2159,4.2159,0,0,1,1.251-3.1592,4.8965,4.8965,0,0,1,3.5659-1.22,4.7865,4.7865,0,0,1,3.5347,1.22,4.2741,4.2741,0,0,1,1.22,3.1592A4.2741,4.2741,0,0,1,58.06,27.83,4.7863,4.7863,0,0,1,54.5254,29.05Z" transform="translate(-0.7876 0)"/>
    <path class="cls-1" d="M107.2,33.93,97.1279,41.875l8.32,21.708H96.94L90.7847,46.3018l-5.856,4.5088V63.583H77.5464V19.791h7.3823v23.21L96.4395,33.93Z" transform="translate(-0.7876 0)"/>
    <path class="cls-1" d="M140.9819,63.583H113.5806V57.64h10.3223V40.561h-9.8843V34.6177h17.2666V57.64h9.6968ZM127.0933,29.05a4.8762,4.8762,0,0,1-3.5972-1.22,4.2757,4.2757,0,0,1-1.22-3.1592,4.2159,4.2159,0,0,1,1.251-3.1592,4.8965,4.8965,0,0,1,3.5659-1.22,4.7865,4.7865,0,0,1,3.5347,1.22,4.2741,4.2741,0,0,1,1.22,3.1592,4.2741,4.2741,0,0,1-1.22,3.1592A4.7863,4.7863,0,0,1,127.0933,29.05Z" transform="translate(-0.7876 0)"/>
    <path class="cls-1" d="M174.3877,28.4243q4.8794,5.5056,4.8794,14.8267t-4.8794,14.8271q-4.8794,5.5049-13.7007,5.5049H149.4888V22.9189H160.687Q169.5083,22.9189,174.3877,28.4243Zm-5.6616,24.9614q2.658-3.8159,2.6587-10.1348t-2.6587-10.1348q-2.66-3.8152-8.0391-3.8159h-3.6284V57.2021h3.6284Q166.0667,57.2021,168.7261,53.3857Z" transform="translate(-0.7876 0)"/>
    <path class="cls-1" d="M212.4854,63.583h-7.2568V62.207a10.5106,10.5106,0,0,1-6.7563,2.002q-6.4438,0-9.478-2.9092a9.5382,9.5382,0,0,1,.0317-13.9824q3.0645-2.94,9.5088-2.94,4.3162,0,6.5063,1.5645V43.877a4.2734,4.2734,0,0,0-1.3457-3.5977,6.4522,6.4522,0,0,0-3.9722-1.0322q-4.2546,0-5.13,2.5654h-7.6318q1.75-8.5078,12.7617-8.5083,6.6936,0,9.728,2.5962t3.0342,8.7891Zm-8.7275-6.4756a3.4894,3.4894,0,0,0,0-5.6924,7.3,7.3,0,0,0-4.5347-1.1572,6.7391,6.7391,0,0,0-4.4419,1.1885,3.5666,3.5666,0,0,0,0,5.63,6.7333,6.7333,0,0,0,4.4419,1.1895A7.28,7.28,0,0,0,203.7578,57.1074Z" transform="translate(-0.7876 0)"/>
    <path class="cls-1" d="M249.207,63.583h-7.3184V47.0049a8.5278,8.5278,0,0,0-1.4082-5.3486,5.3521,5.3521,0,0,0-4.4727-1.7832,5.6091,5.6091,0,0,0-4.0977,1.4385,5.6972,5.6972,0,0,0-1.4707,4.2549V63.583H223.12V19.791h7.3193V35.9941q2.001-2.6887,6.6943-2.69,12.0718,0,12.0732,13.2Z" transform="translate(-0.7876 0)"/>
    <path class="cls-1" d="M286.43,48.3184l-.125,2.6895h-20.457a8.1993,8.1993,0,0,0,2.2832,5.2559,6.5076,6.5076,0,0,0,4.66,1.8145q4.2539,0,5.4434-3.0664H285.93a12.2755,12.2755,0,0,1-4.3164,6.6006q-3.2549,2.5972-8.9473,2.5967a14.6437,14.6437,0,0,1-10.3848-3.8477q-4.1279-3.8467-4.1289-11.292,0-7.1938,4.0664-11.5112a13.7128,13.7128,0,0,1,10.4473-4.3164,12.8694,12.8694,0,0,1,10.01,4.1289Q286.43,41.4993,286.43,48.3184Zm-7.6328-3.0029a6.9046,6.9046,0,0,0-2.0332-4.6606,6.2058,6.2058,0,0,0-4.2852-1.5327,6.3135,6.3135,0,0,0-4.2539,1.564,6.9575,6.9575,0,0,0-2.1895,4.6294Z" transform="translate(-0.7876 0)"/>
    <path class="cls-1" d="M322.4,63.583H295V57.64h10.3223V40.561h-9.8848V34.6177h17.2666V57.64H322.4Z" transform="translate(-0.7876 0)"/>
    <path class="cls-1" d="M361.3125,63.583h-6.3193V46.4414q0-6.5684-3.6279-6.5684a2.82,2.82,0,0,0-2.4717,1.376,7.0269,7.0269,0,0,0-.9072,3.8789V63.583H341.98V46.4414q0-6.5684-3.5654-6.5684-3.4409,0-3.44,5.2549V63.583h-6.3184V33.93h6.3184v2.0645a4.7658,4.7658,0,0,1,4.6914-2.69,6.6329,6.6329,0,0,1,6.0684,3.8784,7.2587,7.2587,0,0,1,6.4434-3.8784q9.1348,0,9.1348,13.2Z" transform="translate(-0.7876 0)"/>
  </g>
  <g>
    <circle class="cls-2" cx="307.2889" cy="11.4073" r="5.3315"/>
    <path class="cls-3" d="M308.5,0a11.0864,11.0864,0,0,0-11.0864,11.0864c0,6.1229,11.0384,19.7252,11.0864,19.7252s11.0864-13.6023,11.0864-19.7252A11.0864,11.0864,0,0,0,308.5,0Zm-.048,15.2618a4.2234,4.2234,0,1,1,4.2234-4.2234A4.2234,4.2234,0,0,1,308.452,15.2618Z" transform="translate(-0.7876 0)"/>
  </g>
</svg>
