<svg xmlns="http://www.w3.org/2000/svg" viewBox="0 0 30 30"><title>icon_kellergasse</title><rect x="1.404" y="23.4958" width="6.6437" height="6.6437" transform="translate(31.5435 22.0918) rotate(90)" style="fill:#c35c97"/><polygon points="8.048 30.14 21.335 16.852 21.335 16.852 8.048 16.852 8.048 30.14" style="fill:#bf3f87"/><polygon points="14.691 23.496 14.691 30.14 8.048 30.14 14.691 23.496" style="fill:#db95bb"/><polygon points="27.979 30.14 21.335 30.14 21.335 23.496 27.979 30.14" style="fill:#c35c97"/><polygon points="8.048 16.852 27.979 16.852 27.979 16.852 18.013 6.886 8.048 16.852" style="fill:#db95bb"/><polygon points="21.335 23.496 27.979 16.852 27.979 30.14 21.335 23.496" style="fill:#db95bb"/><polygon points="27.979 16.852 21.335 16.852 14.691 23.496 21.335 23.496 27.979 16.852" style="fill:#c35c97"/></svg>