<?xml version="1.0" encoding="UTF-8"?>
<svg version="1.1" viewBox="0 0 1664 1600" xmlns="http://www.w3.org/2000/svg"><path d="m384 1408q0-26 19-45t45-19 45 19 19 45-19 45-45 19-45-19-19-45zm-256 0q0-26 19-45t45-19 45 19 19 45-19 45-45 19-45-19-19-45zm-128-224v320q0 40 28 68t68 28h1472q40 0 68-28t28-68v-320q0-40-28-68t-68-28h-427q-21 56-70.5 92t-110.5 36h-256q-61 0-110.5-36t-70.5-92h-427q-40 0-68 28t-28 68zm325-648q17 40 59 40h256v448q0 26 19 45t45 19h256q26 0 45-19t19-45v-448h256q42 0 59-40 17-39-14-69l-448-448q-18-19-45-19t-45 19l-448 448q-31 30-14 69z" fill="#fff"/></svg>
