<svg xmlns="http://www.w3.org/2000/svg" viewBox="0 0 38 52"><title>marker_kellergasse</title><path d="M19.14.0982c-.1211,0-.2382.0159-.3587.0181V11.657c.0928-.0035.1838-.014.2774-.014a7.1546,7.1546,0,0,1,0,14.3092c-.0936,0-.1846-.01-.2774-.014v25.93c.219.2682.3523.4259.3587.4259.0813,0,18.7808-23.0428,18.7808-33.4152A18.7808,18.7808,0,0,0,19.14.0982Z" style="fill:#c35c97"/><path d="M12.2623,18.7976A7.149,7.149,0,0,1,19.14,11.657V.0982A18.7808,18.7808,0,0,0,.3587,18.8785v0c0,10.3723,18.7,33.4152,18.7808,33.4152V25.9382A7.149,7.149,0,0,1,12.2623,18.7976Z" style="fill:#bf3f87"/><rect x="1.404" y="-6.5464" width="6.6437" height="6.6437" transform="translate(1.5013 -7.9504) rotate(90)" style="fill:#c35c97"/><polygon points="8.048 0.097 21.335 -13.19 21.335 -13.19 8.048 -13.19 8.048 0.097" style="fill:#bf3f87"/><polygon points="14.691 -6.546 14.691 0.097 8.048 0.097 14.691 -6.546" style="fill:#db95bb"/><polygon points="27.979 0.097 21.335 0.097 21.335 -6.546 27.979 0.097" style="fill:#c35c97"/><polygon points="21.335 -6.504 27.979 -13.148 27.979 0.14 21.335 -6.504" style="fill:#db95bb"/></svg>