<svg xmlns="http://www.w3.org/2000/svg" viewBox="0 0 37.9203 52.2941">
  <defs>
    <style>
      .cls-1 {
        fill: #c7494e;
      }

      .cls-2 {
        fill: #aa3f47;
      }
    </style>
  </defs>
  <title>marker_single</title>
  <g id="marker_single">
    <path class="cls-1" d="M19.14.0982c-.1211,0-.2382.0159-.3587.0181V11.657c.0928-.0035.1838-.014.2774-.014a7.1546,7.1546,0,0,1,0,14.3092c-.0936,0-.1846-.01-.2774-.014v25.93c.219.2682.3523.4259.3587.4259.0813,0,18.7808-23.0428,18.7808-33.4152A18.7808,18.7808,0,0,0,19.14.0982Z"/>
    <path class="cls-2" d="M12.2623,18.7976A7.149,7.149,0,0,1,19.14,11.657V.0982A18.7808,18.7808,0,0,0,.3587,18.8789c0,10.3723,18.7,33.4152,18.7808,33.4152V25.9382A7.149,7.149,0,0,1,12.2623,18.7976Z"/>
  </g>
</svg>
