<svg xmlns="http://www.w3.org/2000/svg" viewBox="0 0 38 52"><title>marker_denkmalliste</title><path d="M19.14.0982c-.1211,0-.2382.0159-.3587.0181V11.657c.0928-.0035.1838-.014.2774-.014a7.1546,7.1546,0,0,1,0,14.3092c-.0936,0-.1846-.01-.2774-.014v25.93c.219.2682.3523.4259.3587.4259.0813,0,18.7808-23.0428,18.7808-33.4152A18.7808,18.7808,0,0,0,19.14.0982Z" style="fill:#c7494e"/><path d="M12.2623,18.7976A7.149,7.149,0,0,1,19.14,11.657V.0982A18.7808,18.7808,0,0,0,.3587,18.8785v0c0,10.3723,18.7,33.4152,18.7808,33.4152V25.9382A7.149,7.149,0,0,1,12.2623,18.7976Z" style="fill:#aa3f47"/><polygon points="35.351 0.133 54.142 0.133 54.142 0.133 44.747 -9.263 35.351 0.133" style="fill:#aa3f47"/><polyline points="35.351 0.133 35.351 0.133 44.747 -9.263" style="fill:#c7494e"/><polygon points="35.351 -18.658 35.351 0.133 35.351 0.133 44.747 -9.263 35.351 -18.658" style="fill:#c7494e"/></svg>