<svg xmlns="http://www.w3.org/2000/svg" viewBox="0 0 30 30"><title>icon_kellergasse</title><rect x="1.404" y="23.4536" width="6.6437" height="6.6437" transform="translate(31.5013 22.0496) rotate(90)" style="fill:#c35c97"/><polygon points="8.048 30.097 21.335 16.81 21.335 16.81 8.048 16.81 8.048 30.097" style="fill:#bf3f87"/><polygon points="14.691 23.454 14.691 30.097 8.048 30.097 14.691 23.454" style="fill:#db95bb"/><polygon points="27.979 30.097 21.335 30.097 21.335 23.454 27.979 30.097" style="fill:#c35c97"/><polygon points="8.048 16.852 27.979 16.852 27.979 16.852 18.013 6.886 8.048 16.852" style="fill:#db95bb"/><polygon points="21.335 23.496 27.979 16.852 27.979 30.14 21.335 23.496" style="fill:#db95bb"/><polygon points="28 16.81 21.356 16.81 14.67 23.496 21.314 23.496 28 16.81" style="fill:#c35c97"/></svg>
