<svg xmlns="http://www.w3.org/2000/svg" viewBox="0 0 30 30"><title>icon_public_art</title><rect x="11.4558" y="4.5784" width="6.2773" height="6.2773" transform="translate(22.3114 -6.8774) rotate(90)" style="fill:#805184"/><polygon points="20.912 10.856 8.357 23.41 8.357 23.41 20.912 23.41 20.912 10.856" style="fill:#805184"/><polygon points="10.196 4.578 14.634 0.14 19.073 4.578 10.196 4.578" style="fill:#9c61a0"/><polygon points="20.912 17.133 20.912 10.856 27.189 10.856 20.912 17.133" style="fill:#9c61a0"/><polygon points="8.317 23.41 20.872 10.856 20.872 10.856 8.317 10.856 8.317 23.41" style="fill:#9c61a0"/><polygon points="14.634 23.41 20.912 29.687 8.357 29.687 14.634 23.41" style="fill:#805184"/><polygon points="2 23.43 2 17.153 8.317 10.836 8.317 17.113 2 23.43" style="fill:#805184"/></svg>