<svg xmlns="http://www.w3.org/2000/svg" viewBox="0 0 30 30"><title>icon_commons</title><rect x="16.3291" y="7.1864" width="6.6437" height="6.6437" transform="translate(40.9767 4.0434) rotate(135)" style="fill:#3b8bb4"/><polygon points="19.651 5.81 0.86 5.81 0.86 5.81 10.255 15.206 19.651 5.81" style="fill:#55b4e4"/><polygon points="10.255 24.602 14.953 19.904 19.651 24.602 10.255 24.602" style="fill:#55b4e4"/><polygon points="24.349 10.508 19.651 5.81 24.349 1.113 24.349 10.508" style="fill:#55b4e4"/><polygon points="4.988 9.938 4.988 29.869 4.988 29.869 14.953 19.904 4.988 9.938" style="fill:#3b8bb4"/><polygon points="24.349 19.904 14.953 19.904 24.349 10.508 24.349 19.904" style="fill:#55b4e4"/><polygon points="14.953 19.904 19.651 24.602 29.106 24.602 24.408 19.904 14.953 19.904" style="fill:#3b8bb4"/></svg>