<svg xmlns="http://www.w3.org/2000/svg" viewBox="0 0 30 30"><title>icon_denkmalliste</title><rect x="4.7271" y="4.6978" width="6.6437" height="6.6437" transform="translate(16.0686 -0.0292) rotate(90)" style="fill:#c7494e"/><polygon points="3.351 30.133 22.142 30.133 22.142 30.133 12.747 20.737 3.351 30.133" style="fill:#aa3f47"/><polyline points="3.351 30.133 3.351 30.133 12.747 20.737" style="fill:#c7494e"/><polygon points="15.478 16.803 22.121 16.803 22.121 23.447 15.478 16.803" style="fill:#aa3f47"/><polygon points="3.351 4.698 8.049 0 12.747 4.698 3.351 4.698" style="fill:#aa3f47"/><polygon points="3.351 11.342 3.351 30.133 3.351 30.133 12.747 20.737 3.351 11.342" style="fill:#c7494e"/><polyline points="3.351 11.342 3.351 11.342 12.747 20.737" style="fill:#c7494e"/><polygon points="12.747 11.342 12.747 20.737 3.351 11.342 12.747 11.342" style="fill:#aa3f47"/><polygon points="22.142 30.133 22.142 23.489 15.456 16.803 15.456 23.447 22.142 30.133" style="fill:#c7494e"/></svg>