<svg xmlns="http://www.w3.org/2000/svg" viewBox="0 0 30 30"><defs><style type="text/css">.cls-1{fill:#818184;}.cls-2{fill:#aaaaaf;}.cls-3{fill:#5a5a5c;}</style></defs><title>icon_friedhof</title><g id="icon_friedhof"><rect class="cls-1" x="11.68" y="5.03" width="6.65" height="6.65" transform="translate(23.35 -6.65) rotate(90)"/><polygon class="cls-2" points="5.03 24.97 18.32 11.68 18.32 11.68 5.03 11.68 5.03 24.97"/><polygon class="cls-3" points="24.97 18.32 24.97 24.97 18.32 24.97 24.97 18.32"/><polygon class="cls-3" points="11.68 5.03 11.68 11.68 5.03 11.68 11.68 5.03"/><polygon class="cls-3" points="18.32 11.68 5.03 24.97 5.03 24.97 18.32 24.97 18.32 11.68"/><polygon class="cls-1" points="24.97 18.32 18.32 24.97 18.32 11.68 24.97 18.32"/><polygon class="cls-3" points="24.97 18.32 24.97 11.68 18.32 5.03 18.32 11.68 24.97 18.32"/></g></svg>