<svg xmlns="http://www.w3.org/2000/svg" viewBox="0 0 30 30"><title>icon_naturdenkmaeler</title><rect x="11.1997" y="23.4469" width="6.6437" height="6.6437" transform="translate(41.2903 12.2473) rotate(90)" style="fill:#3db291"/><polygon points="14.522 10.159 1.234 23.447 1.234 23.447 14.522 23.447 14.522 10.159" style="fill:#36987a"/><polyline points="14.522 10.159 14.522 10.159 14.522 23.447" style="fill:#3db291"/><polygon points="27.809 16.824 21.165 16.824 21.165 10.181 27.809 16.824" style="fill:#36987a"/><polygon points="14.522 10.181 21.165 10.181 21.165 16.824 14.522 10.181" style="fill:#3db291"/><polygon points="27.809 23.447 14.522 10.159 14.522 10.159 14.522 23.447 27.809 23.447" style="fill:#68bd9f"/><polyline points="27.809 23.447 27.809 23.447 14.522 23.447" style="fill:#3db291"/><polygon points="14.522 3.516 21.165 10.159 7.878 10.159 14.522 3.516" style="fill:#36987a"/><polygon points="14.543 10.159 7.899 10.159 1.213 16.845 7.857 16.845 14.543 10.159" style="fill:#3db291"/></svg>