<svg xmlns="http://www.w3.org/2000/svg" viewBox="0 0 30 30"><title>icon_friedhof</title><rect x="11.6379" y="10.0263" width="6.6491" height="6.6491" transform="translate(28.3133 -1.6115) rotate(90)" style="fill:#f6bf5c"/><polygon points="4.989 29.974 18.287 16.675 18.287 16.675 4.989 16.675 4.989 29.974" style="fill:#f9c77e"/><polygon points="24.936 23.325 24.936 29.974 18.287 29.974 24.936 23.325" style="fill:#e9a43d"/><polygon points="11.638 10.026 11.638 16.675 4.989 16.675 11.638 10.026" style="fill:#e9a43d"/><polygon points="18.287 16.675 4.989 29.974 4.989 29.974 18.287 29.974 18.287 16.675" style="fill:#e9a43d"/><polygon points="24.936 23.325 18.287 29.974 18.287 16.675 24.936 23.325" style="fill:#f6bf5c"/><polygon points="24.936 23.325 24.936 16.675 18.287 10.026 18.287 16.675 24.936 23.325" style="fill:#e9a43d"/></svg>