<svg xmlns="http://www.w3.org/2000/svg" viewBox="0 0 30 30"><title>icon_public_art</title><rect x="11.4558" y="4.5784" width="6.2773" height="6.2773" transform="translate(22.3114 -6.8774) rotate(90)" style="fill:#805184"/><polygon points="20.903 10.856 8.348 23.41 8.348 23.41 20.903 23.41 20.903 10.856" style="fill:#805184"/><polygon points="10.156 4.578 14.594 0.14 19.033 4.578 10.156 4.578" style="fill:#9c61a0"/><polygon points="20.903 17.133 20.903 10.856 27.18 10.856 20.903 17.133" style="fill:#9c61a0"/><polygon points="8.348 23.41 20.903 10.856 20.903 10.856 8.348 10.856 8.348 23.41" style="fill:#9c61a0"/><polygon points="14.594 23.41 20.872 29.687 8.317 29.687 14.594 23.41" style="fill:#805184"/><polygon points="2.031 23.45 2.031 17.173 8.348 10.856 8.348 17.133 2.031 23.45" style="fill:#805184"/></svg>