<svg xmlns="http://www.w3.org/2000/svg" viewBox="0 0 49.8378 49.8378"><title>wikidaheim-logo</title><rect x="16.0188" y="28.4087" width="17.5219" height="17.5219" transform="translate(33.5407 -6.6352) rotate(45)" style="fill:#595a99"/><polygon points="0 0 0 49.56 0 49.56 24.78 24.78 0 0" style="fill:#383972"/><polyline points="0 0 0 0 24.78 24.78" style="fill:#105082"/><polygon points="0 49.56 12.39 37.17 24.78 49.56 0 49.56" style="fill:#24224b"/><polygon points="49.56 0 0 0 0 0 24.78 24.78 49.56 0" style="fill:#24224b"/><polygon points="49.56 49.56 24.78 49.56 49.56 24.78 49.56 49.56" style="fill:#383972"/><polygon points="49.56 0 37.17 12.39 37.17 37.17 49.56 24.78 49.56 0" style="fill:#595a99"/><polygon points="37.17 37.17 24.78 24.78 37.17 12.39 37.17 37.17" style="fill:#383972"/></svg>