<?xml version="1.0" encoding="UTF-8"?>
<svg xmlns="http://www.w3.org/2000/svg" viewBox="0 0 200 200">
  <defs>
    <style>
      .clr-1 {fill: #595999}
      .clr-2 {fill: #24224c}
      .clr-3 {fill: #393972}

      g polygon { transform-origin: 50% 50%; }
      g polygon:nth-child(7) { animation: wdh-folding 1s ease both; }
      g polygon:nth-child(6) { animation: wdh-folding .9s .1s ease both; }
      g polygon:nth-child(5) { animation: wdh-folding .8s .2s ease both; }
      g polygon:nth-child(4) { animation: wdh-folding .7s .3s ease both; }
      g polygon:nth-child(3) { animation: wdh-folding .6s .4s ease both; }
      g polygon:nth-child(2) { animation: wdh-folding .5s .5s ease both; }
      g polygon:nth-child(1) { animation: wdh-folding .4s .6s ease both; }

      @keyframes wdh-folding {
        0% {
          transform: scale(.6) rotateY(90deg);
          opacity:0;
        }

        10% { opacity:1; }
        100% { transform: scale(1); }
      }
    </style>
  </defs>
  <title>WikiDaheim-logo</title>
  <g>
    <polygon id="p-7" class="clr-1" points="100 200 50 150 100 100 150 150 100 200"/>
    <polygon id="p-6" class="clr-2" points="0 200 50 150 100 200 0 200"/>
    <polygon id="p-5" class="clr-3" points="150 150 100 100 150 50 150 150"/>
    <polygon id="p-4" class="clr-3" points="200 200 100 200 200 100 200 200"/>
    <polygon id="p-3" class="clr-1" points="200 0 150 50 150 150 200 100 200 0"/>
    <polygon id="p-2" class="clr-2" points="200 0 0 0 100 100 200 0"/>
    <polygon id="p-1" class="clr-3" points="0 0 0 200 100 100 0 0"/>
  </g>
</svg>
